<?xml version="1.0" encoding="UTF-8"?>
<svg width="700pt" height="700pt" version="1.1" viewBox="0 0 700 700" xmlns="http://www.w3.org/2000/svg">
 <g>
  <path d="m402.5 105c0 28.996-23.504 52.5-52.5 52.5s-52.5-23.504-52.5-52.5 23.504-52.5 52.5-52.5 52.5 23.504 52.5 52.5"/>
  <path d="m402.5 280c0 28.996-23.504 52.5-52.5 52.5s-52.5-23.504-52.5-52.5 23.504-52.5 52.5-52.5 52.5 23.504 52.5 52.5"/>
  <path d="m402.5 455c0 28.996-23.504 52.5-52.5 52.5s-52.5-23.504-52.5-52.5 23.504-52.5 52.5-52.5 52.5 23.504 52.5 52.5"/>
 </g>
</svg>
